<svg width="33" height="32" viewBox="0 0 33 32" fill="none" xmlns="http://www.w3.org/2000/svg">
<path d="M10.1741 8H23.5074C25.6291 8 27.664 8.84285 29.1643 10.3431C30.6646 11.8434 31.5074 13.8783 31.5074 16C31.5074 18.1217 30.6646 20.1566 29.1643 21.6569C27.664 23.1571 25.6291 24 23.5074 24C21.1341 24 19.0141 22.9733 17.5474 21.3333H16.1341C14.6674 22.9733 12.5474 24 10.1741 24C8.05234 24 6.01751 23.1571 4.51722 21.6569C3.01693 20.1566 2.17407 18.1217 2.17407 16C2.17407 13.8783 3.01693 11.8434 4.51722 10.3431C6.01751 8.84285 8.05234 8 10.1741 8ZM8.84074 12V14.6667H6.17407V17.3333H8.84074V20H11.5074V17.3333H14.1741V14.6667H11.5074V12H8.84074ZM21.5074 16C20.977 16 20.4683 16.2107 20.0932 16.5858C19.7181 16.9609 19.5074 17.4696 19.5074 18C19.5074 18.5304 19.7181 19.0391 20.0932 19.4142C20.4683 19.7893 20.977 20 21.5074 20C22.0378 20 22.5465 19.7893 22.9216 19.4142C23.2967 19.0391 23.5074 18.5304 23.5074 18C23.5074 17.4696 23.2967 16.9609 22.9216 16.5858C22.5465 16.2107 22.0378 16 21.5074 16ZM25.5074 12C24.977 12 24.4683 12.2107 24.0932 12.5858C23.7181 12.9609 23.5074 13.4696 23.5074 14C23.5074 14.5304 23.7181 15.0391 24.0932 15.4142C24.4683 15.7893 24.977 16 25.5074 16C26.0378 16 26.5465 15.7893 26.9216 15.4142C27.2967 15.0391 27.5074 14.5304 27.5074 14C27.5074 13.4696 27.2967 12.9609 26.9216 12.5858C26.5465 12.2107 26.0378 12 25.5074 12Z" fill="#716B6C"/>
</svg>
