<svg width="210" height="58" viewBox="0 0 210 58" fill="none" xmlns="http://www.w3.org/2000/svg">
<rect x="8.5" y="1.30078" width="201" height="56" rx="3.5" fill="white" stroke="#D9DDE1"/>
<path d="M70.3092 34.5281V41.8008H69.4285V35.4513H69.3859L67.6103 36.6303V35.7354L69.4285 34.5281H70.3092ZM73.2353 40.8065L73.1785 41.19C73.1382 41.4599 73.0767 41.7487 72.9938 42.0565C72.9133 42.3642 72.8293 42.6542 72.7417 42.9265C72.6541 43.1987 72.5819 43.4154 72.5251 43.5763H71.8859C71.9167 43.4248 71.9569 43.2248 72.0066 42.9762C72.0563 42.7276 72.106 42.4495 72.1558 42.1417C72.2078 41.8363 72.2505 41.5238 72.2836 41.2042L72.3262 40.8065H73.2353ZM76.9347 41.9002C76.6364 41.8955 76.3381 41.8387 76.0398 41.7298C75.7415 41.6209 75.4693 41.4374 75.2231 41.1793C74.9768 40.9189 74.7792 40.5674 74.63 40.1246C74.4809 39.6796 74.4063 39.1209 74.4063 38.4485C74.4063 37.8046 74.4667 37.234 74.5874 36.7369C74.7081 36.2373 74.8833 35.8171 75.113 35.4762C75.3426 35.1329 75.6196 34.8725 75.9439 34.695C76.2706 34.5174 76.6388 34.4286 77.0483 34.4286C77.4555 34.4286 77.8178 34.5103 78.135 34.6737C78.4546 34.8346 78.715 35.0595 78.9162 35.3484C79.1175 35.6372 79.2477 35.9698 79.3069 36.3462H78.4404C78.3599 36.0195 78.2036 35.7485 77.9716 35.533C77.7396 35.3176 77.4319 35.2099 77.0483 35.2099C76.4849 35.2099 76.041 35.4549 75.7167 35.945C75.3947 36.435 75.2325 37.1228 75.2302 38.0082H75.287C75.4196 37.8069 75.577 37.6353 75.7593 37.4933C75.9439 37.3488 76.1475 37.2376 76.3701 37.1594C76.5926 37.0813 76.8282 37.0423 77.0767 37.0423C77.4934 37.0423 77.8746 37.1464 78.2202 37.3548C78.5659 37.5607 78.8428 37.846 79.0512 38.2106C79.2595 38.5728 79.3637 38.9883 79.3637 39.457C79.3637 39.9068 79.2631 40.3188 79.0618 40.6928C78.8606 41.0645 78.5777 41.3604 78.2131 41.5806C77.8509 41.7984 77.4248 41.9049 76.9347 41.9002ZM76.9347 41.119C77.233 41.119 77.5005 41.0444 77.7373 40.8952C77.9764 40.7461 78.1646 40.546 78.3019 40.2951C78.4416 40.0442 78.5114 39.7648 78.5114 39.457C78.5114 39.1564 78.4439 38.8829 78.309 38.6367C78.1764 38.3881 77.9929 38.1905 77.7586 38.0437C77.5266 37.8969 77.2614 37.8235 76.9631 37.8235C76.7382 37.8235 76.5287 37.8685 76.3346 37.9585C76.1404 38.046 75.97 38.1668 75.8232 38.3207C75.6788 38.4746 75.5651 38.6509 75.4823 38.8498C75.3994 39.0463 75.358 39.2534 75.358 39.4712C75.358 39.7601 75.4255 40.0299 75.5604 40.2809C75.6977 40.5318 75.8848 40.7343 76.1215 40.8881C76.3606 41.042 76.6317 41.119 76.9347 41.119ZM80.7602 41.8008V41.1616L83.1607 38.5337C83.4425 38.226 83.6745 37.9585 83.8568 37.7312C84.039 37.5015 84.174 37.2861 84.2616 37.0849C84.3515 36.8813 84.3965 36.6682 84.3965 36.4457C84.3965 36.19 84.335 35.9686 84.2119 35.7816C84.0911 35.5946 83.9254 35.4502 83.7147 35.3484C83.504 35.2466 83.2673 35.1957 83.0045 35.1957C82.7251 35.1957 82.4813 35.2537 82.2729 35.3697C82.067 35.4833 81.9072 35.6431 81.7935 35.8491C81.6823 36.055 81.6266 36.2965 81.6266 36.5735H80.7886C80.7886 36.1474 80.8868 35.7733 81.0833 35.4513C81.2798 35.1294 81.5473 34.8784 81.8859 34.6985C82.2268 34.5186 82.6091 34.4286 83.0329 34.4286C83.459 34.4286 83.8366 34.5186 84.1657 34.6985C84.4948 34.8784 84.7528 35.1211 84.9399 35.4265C85.1269 35.7319 85.2204 36.0716 85.2204 36.4457C85.2204 36.7132 85.1719 36.9748 85.0748 37.2305C84.9801 37.4838 84.8144 37.7667 84.5776 38.0792C84.3433 38.3893 84.0177 38.7681 83.6011 39.2156L81.9676 40.9627V41.0195H85.3482V41.8008H80.7602ZM89.0876 41.9002C88.6709 41.9002 88.2957 41.8174 87.9619 41.6516C87.6281 41.4859 87.3605 41.2586 87.1593 40.9698C86.9581 40.681 86.848 40.3519 86.8291 39.9826H87.6813C87.7145 40.3117 87.8636 40.5839 88.1288 40.7994C88.3963 41.0124 88.7159 41.119 89.0876 41.119C89.3859 41.119 89.651 41.0491 89.883 40.9094C90.1174 40.7698 90.3009 40.578 90.4335 40.3342C90.5684 40.0879 90.6359 39.8098 90.6359 39.4996C90.6359 39.1824 90.566 38.8995 90.4264 38.6509C90.289 38.4 90.0997 38.2023 89.8582 38.0579C89.6167 37.9135 89.3409 37.8401 89.0308 37.8377C88.8082 37.8353 88.5798 37.8697 88.3454 37.9407C88.111 38.0094 87.9181 38.0981 87.7666 38.207L86.9427 38.1076L87.383 34.5281H91.1614V35.3093H88.1217L87.866 37.4542H87.9086C88.0578 37.3358 88.2448 37.2376 88.4697 37.1594C88.6946 37.0813 88.929 37.0423 89.1728 37.0423C89.6179 37.0423 90.0144 37.1488 90.3624 37.3619C90.7128 37.5726 90.9874 37.8614 91.1863 38.2283C91.3875 38.5953 91.4881 39.0143 91.4881 39.4854C91.4881 39.9495 91.384 40.3638 91.1756 40.7283C90.9697 41.0906 90.6856 41.377 90.3234 41.5877C89.9612 41.796 89.5492 41.9002 89.0876 41.9002ZM95.7255 41.8008V36.3462H96.5352V37.1701H96.592C96.6915 36.9002 96.8714 36.6812 97.1318 36.5131C97.3922 36.3451 97.6858 36.261 98.0125 36.261C98.074 36.261 98.151 36.2622 98.2433 36.2646C98.3356 36.2669 98.4055 36.2705 98.4528 36.2752V37.1275C98.4244 37.1204 98.3593 37.1097 98.2575 37.0955C98.1581 37.079 98.0527 37.0707 97.9415 37.0707C97.6763 37.0707 97.4396 37.1263 97.2312 37.2376C97.0253 37.3465 96.8619 37.498 96.7412 37.6921C96.6228 37.8839 96.5636 38.1029 96.5636 38.3491V41.8008H95.7255ZM101.567 41.9144C101.042 41.9144 100.588 41.7984 100.207 41.5664C99.8283 41.332 99.5359 41.0053 99.3299 40.5863C99.1263 40.1649 99.0245 39.6748 99.0245 39.1161C99.0245 38.5574 99.1263 38.065 99.3299 37.6388C99.5359 37.2103 99.8224 36.8765 100.189 36.6374C100.559 36.396 100.99 36.2752 101.482 36.2752C101.766 36.2752 102.047 36.3226 102.324 36.4173C102.601 36.512 102.853 36.6658 103.08 36.8789C103.307 37.0896 103.488 37.369 103.623 37.717C103.758 38.065 103.826 38.4935 103.826 39.0025V39.3576H99.6211V38.6332H102.973C102.973 38.3254 102.912 38.0508 102.789 37.8093C102.668 37.5678 102.495 37.3772 102.27 37.2376C102.048 37.0979 101.785 37.0281 101.482 37.0281C101.148 37.0281 100.859 37.1109 100.615 37.2766C100.374 37.44 100.188 37.6531 100.058 37.9158C99.9277 38.1786 99.8626 38.4603 99.8626 38.761V39.244C99.8626 39.6559 99.9336 40.0051 100.076 40.2915C100.22 40.5756 100.42 40.7923 100.676 40.9414C100.932 41.0882 101.229 41.1616 101.567 41.1616C101.787 41.1616 101.986 41.1308 102.164 41.0692C102.344 41.0053 102.499 40.9106 102.629 40.7852C102.759 40.6573 102.86 40.4987 102.931 40.3093L103.74 40.5366C103.655 40.8112 103.512 41.0527 103.311 41.261C103.11 41.467 102.861 41.628 102.565 41.744C102.269 41.8576 101.936 41.9144 101.567 41.9144ZM107.316 41.9144C106.805 41.9144 106.365 41.7937 105.995 41.5522C105.626 41.3107 105.342 40.9781 105.143 40.5543C104.944 40.1306 104.845 39.6464 104.845 39.1019C104.845 38.5479 104.947 38.0591 105.15 37.6353C105.356 37.2092 105.643 36.8765 106.01 36.6374C106.379 36.396 106.81 36.2752 107.302 36.2752C107.686 36.2752 108.031 36.3462 108.339 36.4883C108.647 36.6303 108.899 36.8292 109.096 37.0849C109.292 37.3406 109.414 37.6388 109.461 37.9798H108.623C108.559 37.7312 108.417 37.511 108.197 37.3192C107.979 37.1251 107.686 37.0281 107.316 37.0281C106.99 37.0281 106.703 37.1133 106.457 37.2837C106.213 37.4518 106.023 37.6897 105.885 37.9975C105.75 38.3029 105.683 38.6616 105.683 39.0735C105.683 39.4949 105.749 39.8619 105.882 40.1744C106.017 40.4869 106.206 40.7295 106.45 40.9023C106.696 41.0752 106.985 41.1616 107.316 41.1616C107.534 41.1616 107.732 41.1237 107.909 41.0479C108.087 40.9722 108.237 40.8633 108.36 40.7212C108.484 40.5792 108.571 40.4087 108.623 40.2099H109.461C109.414 40.5318 109.297 40.8219 109.11 41.0799C108.925 41.3356 108.68 41.5392 108.375 41.6907C108.072 41.8398 107.719 41.9144 107.316 41.9144ZM112.902 41.9144C112.41 41.9144 111.978 41.7972 111.606 41.5629C111.237 41.3285 110.948 41.0006 110.74 40.5792C110.534 40.1578 110.431 39.6654 110.431 39.1019C110.431 38.5337 110.534 38.0378 110.74 37.614C110.948 37.1902 111.237 36.8612 111.606 36.6268C111.978 36.3924 112.41 36.2752 112.902 36.2752C113.395 36.2752 113.826 36.3924 114.195 36.6268C114.567 36.8612 114.856 37.1902 115.061 37.614C115.27 38.0378 115.374 38.5337 115.374 39.1019C115.374 39.6654 115.27 40.1578 115.061 40.5792C114.856 41.0006 114.567 41.3285 114.195 41.5629C113.826 41.7972 113.395 41.9144 112.902 41.9144ZM112.902 41.1616C113.276 41.1616 113.584 41.0657 113.826 40.8739C114.067 40.6822 114.246 40.43 114.362 40.1175C114.478 39.805 114.536 39.4665 114.536 39.1019C114.536 38.7373 114.478 38.3976 114.362 38.0827C114.246 37.7679 114.067 37.5134 113.826 37.3192C113.584 37.1251 113.276 37.0281 112.902 37.0281C112.528 37.0281 112.221 37.1251 111.979 37.3192C111.738 37.5134 111.559 37.7679 111.443 38.0827C111.327 38.3976 111.269 38.7373 111.269 39.1019C111.269 39.4665 111.327 39.805 111.443 40.1175C111.559 40.43 111.738 40.6822 111.979 40.8739C112.221 41.0657 112.528 41.1616 112.902 41.1616ZM116.653 41.8008V36.3462H117.463V37.1701H117.52C117.619 36.9002 117.799 36.6812 118.06 36.5131C118.32 36.3451 118.614 36.261 118.94 36.261C119.002 36.261 119.079 36.2622 119.171 36.2646C119.263 36.2669 119.333 36.2705 119.381 36.2752V37.1275C119.352 37.1204 119.287 37.1097 119.185 37.0955C119.086 37.079 118.98 37.0707 118.869 37.0707C118.604 37.0707 118.367 37.1263 118.159 37.2376C117.953 37.3465 117.79 37.498 117.669 37.6921C117.551 37.8839 117.491 38.1029 117.491 38.3491V41.8008H116.653ZM122.268 41.9144C121.813 41.9144 121.412 41.7996 121.064 41.57C120.716 41.3379 120.444 41.0112 120.247 40.5898C120.051 40.1661 119.952 39.6654 119.952 39.0877C119.952 38.5148 120.051 38.0176 120.247 37.5962C120.444 37.1748 120.717 36.8493 121.067 36.6197C121.418 36.39 121.823 36.2752 122.282 36.2752C122.637 36.2752 122.917 36.3344 123.123 36.4528C123.332 36.5688 123.49 36.7013 123.599 36.8505C123.711 36.9973 123.797 37.118 123.859 37.2127H123.93V34.5281H124.768V41.8008H123.958V40.9627H123.859C123.797 41.0621 123.709 41.1876 123.596 41.3391C123.482 41.4883 123.32 41.622 123.109 41.7404C122.899 41.8564 122.618 41.9144 122.268 41.9144ZM122.381 41.1616C122.717 41.1616 123.002 41.074 123.234 40.8988C123.466 40.7212 123.642 40.4762 123.763 40.1637C123.883 39.8488 123.944 39.4854 123.944 39.0735C123.944 38.6663 123.885 38.31 123.766 38.0046C123.648 37.6969 123.473 37.4577 123.241 37.2873C123.009 37.1145 122.722 37.0281 122.381 37.0281C122.026 37.0281 121.73 37.1192 121.493 37.3015C121.259 37.4814 121.083 37.7264 120.964 38.0366C120.848 38.3443 120.79 38.69 120.79 39.0735C120.79 39.4618 120.85 39.8145 120.968 40.1317C121.089 40.4466 121.266 40.6976 121.501 40.8846C121.737 41.0692 122.031 41.1616 122.381 41.1616ZM130.283 37.5678L129.53 37.7809C129.482 37.6554 129.413 37.5335 129.32 37.4151C129.23 37.2944 129.107 37.195 128.951 37.1168C128.795 37.0387 128.595 36.9996 128.351 36.9996C128.017 36.9996 127.739 37.0766 127.516 37.2305C127.296 37.382 127.186 37.5749 127.186 37.8093C127.186 38.0176 127.262 38.1822 127.413 38.3029C127.565 38.4237 127.801 38.5243 128.123 38.6048L128.933 38.8036C129.421 38.922 129.784 39.1031 130.023 39.3469C130.262 39.5884 130.382 39.8997 130.382 40.2809C130.382 40.5934 130.292 40.8728 130.112 41.119C129.935 41.3652 129.686 41.5593 129.366 41.7013C129.047 41.8434 128.675 41.9144 128.251 41.9144C127.695 41.9144 127.234 41.7937 126.87 41.5522C126.505 41.3107 126.274 40.958 126.177 40.494L126.973 40.2951C127.049 40.5887 127.192 40.8088 127.403 40.9556C127.616 41.1024 127.894 41.1758 128.237 41.1758C128.628 41.1758 128.938 41.0929 129.167 40.9272C129.399 40.7591 129.515 40.5579 129.515 40.3235C129.515 40.1341 129.449 39.9755 129.317 39.8477C129.184 39.7174 128.98 39.6204 128.706 39.5565L127.797 39.3434C127.297 39.225 126.93 39.0415 126.696 38.793C126.464 38.542 126.348 38.2283 126.348 37.8519C126.348 37.5442 126.434 37.2719 126.607 37.0352C126.782 36.7984 127.02 36.6126 127.321 36.4776C127.624 36.3427 127.967 36.2752 128.351 36.2752C128.89 36.2752 129.314 36.3936 129.622 36.6303C129.932 36.8671 130.152 37.1796 130.283 37.5678Z" fill="#787E84"/>
<path d="M71.3035 18.0735H72.8717V24.2099C72.8688 24.7724 72.7495 25.2567 72.5137 25.663C72.2779 26.0664 71.9484 26.3775 71.5251 26.5962C71.1046 26.8121 70.6146 26.9201 70.0549 26.9201C69.5435 26.9201 69.0833 26.8292 68.6742 26.6474C68.268 26.4627 67.9455 26.19 67.7069 25.8292C67.4683 25.4684 67.3489 25.0195 67.3489 24.4826H68.9214C68.9242 24.7184 68.9754 24.9215 69.0748 25.092C69.1771 25.2624 69.3177 25.3931 69.4967 25.484C69.6756 25.5749 69.8816 25.6204 70.1146 25.6204C70.3674 25.6204 70.5819 25.5678 70.758 25.4627C70.9342 25.3548 71.0677 25.1957 71.1586 24.9854C71.2524 24.7752 71.3006 24.5167 71.3035 24.2099V18.0735ZM77.3738 26.9286C76.7346 26.9286 76.1806 26.788 75.7119 26.5067C75.2431 26.2255 74.8795 25.832 74.621 25.3263C74.3653 24.8207 74.2374 24.2298 74.2374 23.5536C74.2374 22.8775 74.3653 22.2852 74.621 21.7766C74.8795 21.2681 75.2431 20.8732 75.7119 20.592C76.1806 20.3107 76.7346 20.1701 77.3738 20.1701C78.013 20.1701 78.567 20.3107 79.0357 20.592C79.5045 20.8732 79.8667 21.2681 80.1224 21.7766C80.3809 22.2852 80.5102 22.8775 80.5102 23.5536C80.5102 24.2298 80.3809 24.8207 80.1224 25.3263C79.8667 25.832 79.5045 26.2255 79.0357 26.5067C78.567 26.788 78.013 26.9286 77.3738 26.9286ZM77.3823 25.6928C77.7289 25.6928 78.0187 25.5977 78.2516 25.4073C78.4846 25.2141 78.6579 24.9556 78.7715 24.6317C78.888 24.3079 78.9462 23.9471 78.9462 23.5494C78.9462 23.1488 78.888 22.7866 78.7715 22.4627C78.6579 22.136 78.4846 21.8761 78.2516 21.6829C78.0187 21.4897 77.7289 21.3931 77.3823 21.3931C77.0272 21.3931 76.7318 21.4897 76.496 21.6829C76.263 21.8761 76.0883 22.136 75.9718 22.4627C75.8582 22.7866 75.8014 23.1488 75.8014 23.5494C75.8014 23.9471 75.8582 24.3079 75.9718 24.6317C76.0883 24.9556 76.263 25.2141 76.496 25.4073C76.7318 25.5977 77.0272 25.6928 77.3823 25.6928ZM81.8195 26.8008V20.2553H83.3621V26.8008H81.8195ZM82.595 19.3263C82.3507 19.3263 82.1405 19.2454 81.9644 19.0835C81.7882 18.9187 81.7002 18.7212 81.7002 18.4911C81.7002 18.2582 81.7882 18.0607 81.9644 17.8988C82.1405 17.734 82.3507 17.6516 82.595 17.6516C82.8422 17.6516 83.0524 17.734 83.2257 17.8988C83.4019 18.0607 83.4899 18.2582 83.4899 18.4911C83.4899 18.7212 83.4019 18.9187 83.2257 19.0835C83.0524 19.2454 82.8422 19.3263 82.595 19.3263ZM86.491 22.9656V26.8008H84.9484V20.2553H86.4228V21.3675H86.4995C86.6501 21.0011 86.8901 20.7099 87.2197 20.494C87.5521 20.2781 87.9626 20.1701 88.4512 20.1701C88.9029 20.1701 89.2964 20.2667 89.6316 20.4599C89.9697 20.6531 90.231 20.9329 90.4157 21.2994C90.6032 21.6658 90.6955 22.1104 90.6927 22.6332V26.8008H89.1501V22.8718C89.1501 22.4343 89.0364 22.092 88.8092 21.8448C88.5847 21.5977 88.2737 21.4741 87.8759 21.4741C87.606 21.4741 87.366 21.5337 87.1558 21.6531C86.9484 21.7695 86.785 21.9386 86.6657 22.1602C86.5492 22.3817 86.491 22.6502 86.491 22.9656Z" fill="#4B5864"/>
<path d="M194 0.728516H206C208.209 0.728516 210 2.51938 210 4.72852V53.7285C210 55.9377 208.209 57.7285 206 57.7285H194V0.728516Z" fill="#EE9C5F"/>
<circle cx="8.5" cy="16.584" r="8.5" fill="#EE9C5F"/>
<path d="M6.17383 20.584V12.584H7.62305V19.3691H11.1465V20.584H6.17383Z" fill="white"/>
<circle cx="8.5" cy="41.584" r="8.5" fill="#EE9C5F"/>
<path d="M5.71191 45.584V37.584H8.71191C9.3265 37.584 9.84212 37.6908 10.2588 37.9043C10.6781 38.1178 10.9945 38.4173 11.208 38.8027C11.4242 39.1855 11.5322 39.6322 11.5322 40.1426C11.5322 40.6556 11.4229 41.1009 11.2041 41.4785C10.988 41.8535 10.6689 42.1439 10.2471 42.3496C9.8252 42.5527 9.30697 42.6543 8.69238 42.6543H6.55566V41.4512H8.49707C8.85645 41.4512 9.15072 41.4017 9.37988 41.3027C9.60905 41.2012 9.77832 41.054 9.8877 40.8613C9.99967 40.666 10.0557 40.4264 10.0557 40.1426C10.0557 39.8587 9.99967 39.6165 9.8877 39.416C9.77572 39.2129 9.60514 39.0592 9.37598 38.9551C9.14681 38.8483 8.85124 38.7949 8.48926 38.7949H7.16113V45.584H5.71191ZM9.84473 41.959L11.8252 45.584H10.208L8.2627 41.959H9.84473Z" fill="white"/>
<rect x="22.9995" y="13.374" width="36" height="33" rx="3" fill="#FFE7D0"/>
<circle cx="44.4995" cy="29.874" r="6.6" stroke="#B97545" stroke-width="1.8"/>
<circle cx="37.4995" cy="29.874" r="6.6" stroke="#E99A61" stroke-width="1.8"/>
</svg>
