<svg width="210" height="77" viewBox="0 0 210 77" fill="none" xmlns="http://www.w3.org/2000/svg">
<rect x="8.5" y="1.30078" width="201" height="75" rx="3.5" fill="white" stroke="#D9DDE1"/>
<path d="M68.179 32.5281L70.3381 38.6502H70.4233L72.5824 32.5281H73.5057L70.8352 39.8008H69.9261L67.2557 32.5281H68.179ZM76.304 39.9144C75.7784 39.9144 75.325 39.7984 74.9439 39.5664C74.5651 39.332 74.2727 39.0053 74.0668 38.5863C73.8632 38.1649 73.7614 37.6748 73.7614 37.1161C73.7614 36.5574 73.8632 36.065 74.0668 35.6388C74.2727 35.2103 74.5592 34.8765 74.9261 34.6374C75.2955 34.396 75.7263 34.2752 76.2188 34.2752C76.5028 34.2752 76.7834 34.3226 77.0604 34.4173C77.3374 34.512 77.5895 34.6658 77.8168 34.8789C78.044 35.0896 78.2251 35.369 78.3601 35.717C78.495 36.065 78.5625 36.4935 78.5625 37.0025V37.3576H74.358V36.6332H77.7102C77.7102 36.3254 77.6487 36.0508 77.5256 35.8093C77.4048 35.5678 77.232 35.3772 77.0071 35.2376C76.7846 35.0979 76.5218 35.0281 76.2188 35.0281C75.8849 35.0281 75.5961 35.1109 75.3523 35.2766C75.1108 35.44 74.925 35.6531 74.7947 35.9158C74.6645 36.1786 74.5994 36.4603 74.5994 36.761V37.244C74.5994 37.6559 74.6705 38.0051 74.8125 38.2915C74.9569 38.5756 75.157 38.7923 75.4126 38.9414C75.6683 39.0882 75.9654 39.1616 76.304 39.1616C76.5241 39.1616 76.723 39.1308 76.9006 39.0692C77.0805 39.0053 77.2356 38.9106 77.3658 38.7852C77.496 38.6573 77.5966 38.4987 77.6676 38.3093L78.4773 38.5366C78.392 38.8112 78.2488 39.0527 78.0476 39.261C77.8464 39.467 77.5978 39.628 77.3018 39.744C77.0059 39.8576 76.6733 39.9144 76.304 39.9144ZM79.8374 39.8008V34.3462H80.647V35.1701H80.7038C80.8033 34.9002 80.9832 34.6812 81.2436 34.5131C81.504 34.3451 81.7976 34.261 82.1243 34.261C82.1858 34.261 82.2628 34.2622 82.3551 34.2646C82.4474 34.2669 82.5173 34.2705 82.5646 34.2752V35.1275C82.5362 35.1204 82.4711 35.1097 82.3693 35.0955C82.2699 35.079 82.1645 35.0707 82.0533 35.0707C81.7881 35.0707 81.5514 35.1263 81.343 35.2376C81.1371 35.3465 80.9737 35.498 80.853 35.6921C80.7346 35.8839 80.6754 36.1029 80.6754 36.3491V39.8008H79.8374ZM86.272 34.3462V35.0565H83.4453V34.3462H86.272ZM84.2692 33.0394H85.1072V38.2383C85.1072 38.475 85.1416 38.6526 85.2102 38.771C85.2813 38.887 85.3712 38.9651 85.4801 39.0053C85.5914 39.0432 85.7086 39.0621 85.8317 39.0621C85.924 39.0621 85.9998 39.0574 86.0589 39.0479C86.1181 39.0361 86.1655 39.0266 86.201 39.0195L86.3714 39.7724C86.3146 39.7937 86.2353 39.815 86.1335 39.8363C86.0317 39.86 85.9027 39.8718 85.7464 39.8718C85.5097 39.8718 85.2777 39.8209 85.0504 39.7191C84.8255 39.6173 84.6385 39.4622 84.4893 39.2539C84.3426 39.0456 84.2692 38.7828 84.2692 38.4656V33.0394ZM87.5327 39.8008V34.3462H88.3707V39.8008H87.5327ZM87.9588 33.4371C87.7955 33.4371 87.6546 33.3815 87.5362 33.2702C87.4202 33.159 87.3622 33.0252 87.3622 32.869C87.3622 32.7127 87.4202 32.579 87.5362 32.4677C87.6546 32.3564 87.7955 32.3008 87.9588 32.3008C88.1222 32.3008 88.2618 32.3564 88.3778 32.4677C88.4962 32.579 88.5554 32.7127 88.5554 32.869C88.5554 33.0252 88.4962 33.159 88.3778 33.2702C88.2618 33.3815 88.1222 33.4371 87.9588 33.4371ZM92.1216 39.9144C91.6103 39.9144 91.1699 39.7937 90.8006 39.5522C90.4313 39.3107 90.1472 38.9781 89.9483 38.5543C89.7495 38.1306 89.65 37.6464 89.65 37.1019C89.65 36.5479 89.7518 36.0591 89.9554 35.6353C90.1614 35.2092 90.4479 34.8765 90.8148 34.6374C91.1841 34.396 91.615 34.2752 92.1074 34.2752C92.4909 34.2752 92.8366 34.3462 93.1444 34.4883C93.4521 34.6303 93.7042 34.8292 93.9007 35.0849C94.0972 35.3406 94.2192 35.6388 94.2665 35.9798H93.4284C93.3645 35.7312 93.2225 35.511 93.0023 35.3192C92.7845 35.1251 92.4909 35.0281 92.1216 35.0281C91.7949 35.0281 91.5085 35.1133 91.2623 35.2837C91.0184 35.4518 90.8278 35.6897 90.6905 35.9975C90.5556 36.3029 90.4881 36.6616 90.4881 37.0735C90.4881 37.4949 90.5544 37.8619 90.687 38.1744C90.8219 38.4869 91.0113 38.7295 91.2551 38.9023C91.5014 39.0752 91.7902 39.1616 92.1216 39.1616C92.3394 39.1616 92.5371 39.1237 92.7147 39.0479C92.8922 38.9722 93.0426 38.8633 93.1657 38.7212C93.2888 38.5792 93.3764 38.4087 93.4284 38.2099H94.2665C94.2192 38.5318 94.102 38.8219 93.915 39.0799C93.7303 39.3356 93.4853 39.5392 93.1799 39.6907C92.8768 39.8398 92.5241 39.9144 92.1216 39.9144ZM97.0968 39.9286C96.7511 39.9286 96.4374 39.8635 96.1557 39.7333C95.874 39.6007 95.6503 39.4102 95.4846 39.1616C95.3188 38.9106 95.236 38.6076 95.236 38.2525C95.236 37.94 95.2975 37.6867 95.4206 37.4925C95.5437 37.296 95.7083 37.1422 95.9142 37.0309C96.1202 36.9196 96.3475 36.8368 96.5961 36.7823C96.847 36.7255 97.0991 36.6805 97.3525 36.6474C97.6839 36.6048 97.9526 36.5728 98.1586 36.5515C98.3669 36.5278 98.5184 36.4888 98.6131 36.4343C98.7102 36.3799 98.7587 36.2852 98.7587 36.1502V36.1218C98.7587 35.7714 98.6628 35.4992 98.4711 35.305C98.2817 35.1109 97.994 35.0138 97.6081 35.0138C97.208 35.0138 96.8944 35.1014 96.6671 35.2766C96.4398 35.4518 96.28 35.6388 96.1877 35.8377L95.3922 35.5536C95.5343 35.2222 95.7237 34.9641 95.9604 34.7795C96.1995 34.5924 96.4599 34.4622 96.7417 34.3888C97.0257 34.3131 97.3051 34.2752 97.5797 34.2752C97.7549 34.2752 97.9561 34.2965 98.1834 34.3391C98.4131 34.3794 98.6344 34.4634 98.8475 34.5913C99.0629 34.7191 99.2417 34.9121 99.3837 35.1701C99.5257 35.4281 99.5968 35.7738 99.5968 36.207V39.8008H98.7587V39.0621H98.7161C98.6593 39.1805 98.5646 39.3072 98.432 39.4421C98.2994 39.5771 98.123 39.6919 97.9029 39.7866C97.6827 39.8813 97.414 39.9286 97.0968 39.9286ZM97.2246 39.1758C97.556 39.1758 97.8354 39.1107 98.0627 38.9805C98.2923 38.8503 98.4651 38.6822 98.5811 38.4762C98.6995 38.2702 98.7587 38.0536 98.7587 37.8263V37.0593C98.7232 37.1019 98.6451 37.141 98.5243 37.1765C98.406 37.2096 98.2686 37.2392 98.1124 37.2653C97.9585 37.2889 97.8082 37.3103 97.6614 37.3292C97.517 37.3458 97.3998 37.36 97.3098 37.3718C97.092 37.4002 96.8884 37.4464 96.699 37.5103C96.512 37.5719 96.3605 37.6654 96.2445 37.7908C96.1309 37.9139 96.074 38.082 96.074 38.2951C96.074 38.5863 96.1818 38.8065 96.3972 38.9556C96.615 39.1024 96.8908 39.1758 97.2246 39.1758ZM101.964 32.5281V39.8008H101.126V32.5281H101.964ZM111.198 32.5281H112.079V37.3434C112.079 37.8406 111.962 38.2844 111.727 38.6751C111.495 39.0633 111.168 39.3699 110.744 39.5948C110.32 39.8174 109.823 39.9286 109.252 39.9286C108.682 39.9286 108.185 39.8174 107.761 39.5948C107.337 39.3699 107.008 39.0633 106.774 38.6751C106.542 38.2844 106.426 37.8406 106.426 37.3434V32.5281H107.306V37.2724C107.306 37.6275 107.384 37.9435 107.541 38.2205C107.697 38.4951 107.919 38.7118 108.208 38.8704C108.499 39.0266 108.847 39.1048 109.252 39.1048C109.657 39.1048 110.005 39.0266 110.296 38.8704C110.588 38.7118 110.81 38.4951 110.964 38.2205C111.12 37.9435 111.198 37.6275 111.198 37.2724V32.5281ZM114.562 36.5195V39.8008H113.724V34.3462H114.534V35.1985H114.605C114.733 34.9215 114.927 34.699 115.187 34.5309C115.448 34.3604 115.784 34.2752 116.196 34.2752C116.565 34.2752 116.888 34.351 117.165 34.5025C117.442 34.6516 117.658 34.8789 117.811 35.1843C117.965 35.4873 118.042 35.8709 118.042 36.3349V39.8008H117.204V36.3917C117.204 35.9632 117.093 35.6294 116.87 35.3903C116.648 35.1488 116.342 35.0281 115.954 35.0281C115.687 35.0281 115.448 35.0861 115.237 35.2021C115.029 35.3181 114.864 35.4873 114.743 35.7099C114.623 35.9324 114.562 36.2023 114.562 36.5195ZM119.574 39.8008V34.3462H120.412V39.8008H119.574ZM120 33.4371C119.836 33.4371 119.696 33.3815 119.577 33.2702C119.461 33.159 119.403 33.0252 119.403 32.869C119.403 32.7127 119.461 32.579 119.577 32.4677C119.696 32.3564 119.836 32.3008 120 32.3008C120.163 32.3008 120.303 32.3564 120.419 32.4677C120.537 32.579 120.596 32.7127 120.596 32.869C120.596 33.0252 120.537 33.159 120.419 33.2702C120.303 33.3815 120.163 33.4371 120 33.4371ZM124.163 39.9144C123.67 39.9144 123.238 39.7972 122.866 39.5629C122.497 39.3285 122.208 39.0006 122 38.5792C121.794 38.1578 121.691 37.6654 121.691 37.1019C121.691 36.5337 121.794 36.0378 122 35.614C122.208 35.1902 122.497 34.8612 122.866 34.6268C123.238 34.3924 123.67 34.2752 124.163 34.2752C124.655 34.2752 125.086 34.3924 125.455 34.6268C125.827 34.8612 126.116 35.1902 126.322 35.614C126.53 36.0378 126.634 36.5337 126.634 37.1019C126.634 37.6654 126.53 38.1578 126.322 38.5792C126.116 39.0006 125.827 39.3285 125.455 39.5629C125.086 39.7972 124.655 39.9144 124.163 39.9144ZM124.163 39.1616C124.537 39.1616 124.844 39.0657 125.086 38.8739C125.327 38.6822 125.506 38.43 125.622 38.1175C125.738 37.805 125.796 37.4665 125.796 37.1019C125.796 36.7373 125.738 36.3976 125.622 36.0827C125.506 35.7679 125.327 35.5134 125.086 35.3192C124.844 35.1251 124.537 35.0281 124.163 35.0281C123.789 35.0281 123.481 35.1251 123.239 35.3192C122.998 35.5134 122.819 35.7679 122.703 36.0827C122.587 36.3976 122.529 36.7373 122.529 37.1019C122.529 37.4665 122.587 37.805 122.703 38.1175C122.819 38.43 122.998 38.6822 123.239 38.8739C123.481 39.0657 123.789 39.1616 124.163 39.1616ZM128.752 36.5195V39.8008H127.914V34.3462H128.723V35.1985H128.794C128.922 34.9215 129.116 34.699 129.377 34.5309C129.637 34.3604 129.973 34.2752 130.385 34.2752C130.754 34.2752 131.078 34.351 131.355 34.5025C131.632 34.6516 131.847 34.8789 132.001 35.1843C132.155 35.4873 132.232 35.8709 132.232 36.3349V39.8008H131.394V36.3917C131.394 35.9632 131.282 35.6294 131.06 35.3903C130.837 35.1488 130.532 35.0281 130.144 35.0281C129.876 35.0281 129.637 35.0861 129.426 35.2021C129.218 35.3181 129.053 35.4873 128.933 35.7099C128.812 35.9324 128.752 36.2023 128.752 36.5195Z" fill="#787E84"/>
<path d="M26.9716 55.0735V63.8008H25.9148V56.1815H25.8636L23.733 57.5962V56.5224L25.9148 55.0735H26.9716ZM30.483 62.6076L30.4148 63.0678C30.3665 63.3917 30.2926 63.7383 30.1932 64.1076C30.0966 64.4769 29.9957 64.8249 29.8906 65.1516C29.7855 65.4783 29.6989 65.7383 29.6307 65.9315H28.8636C28.9006 65.7496 28.9489 65.5096 29.0085 65.2113C29.0682 64.913 29.1278 64.5792 29.1875 64.2099C29.25 63.8434 29.3011 63.4684 29.3409 63.0849L29.392 62.6076H30.483ZM34.9222 63.9201C34.5643 63.9144 34.2063 63.8462 33.8484 63.7156C33.4904 63.5849 33.1637 63.3647 32.8683 63.055C32.5728 62.7425 32.3356 62.3207 32.1566 61.7894C31.9776 61.2553 31.8881 60.5849 31.8881 59.7781C31.8881 59.0053 31.9606 58.3207 32.1055 57.7241C32.2504 57.1246 32.4606 56.6204 32.7362 56.2113C33.0117 55.7994 33.3441 55.4869 33.7333 55.2738C34.1254 55.0607 34.5671 54.9542 35.0586 54.9542C35.5472 54.9542 35.9819 55.0522 36.3626 55.2482C36.7461 55.4414 37.0586 55.7113 37.3001 56.0579C37.5415 56.4045 37.6978 56.8036 37.7688 57.2553H36.729C36.6325 56.8633 36.445 56.538 36.1665 56.2795C35.8881 56.021 35.5188 55.8917 35.0586 55.8917C34.3825 55.8917 33.8498 56.1857 33.4606 56.7738C33.0742 57.3619 32.8796 58.1871 32.8768 59.2496H32.945C33.104 59.0082 33.293 58.8022 33.5117 58.6317C33.7333 58.4585 33.9776 58.3249 34.2447 58.2312C34.5117 58.1374 34.7944 58.0906 35.0927 58.0906C35.5927 58.0906 36.0501 58.2156 36.4648 58.4656C36.8796 58.7127 37.212 59.055 37.462 59.4925C37.712 59.9272 37.837 60.4258 37.837 60.9883C37.837 61.5281 37.7163 62.0224 37.4748 62.4712C37.2333 62.9173 36.8938 63.2724 36.4563 63.5366C36.0217 63.7979 35.5103 63.9258 34.9222 63.9201ZM34.9222 62.9826C35.2802 62.9826 35.6012 62.8931 35.8853 62.7141C36.1722 62.5352 36.3981 62.2951 36.5629 61.994C36.7305 61.6928 36.8143 61.3576 36.8143 60.9883C36.8143 60.6275 36.7333 60.2994 36.5714 60.0039C36.4123 59.7056 36.1921 59.4684 35.9109 59.2923C35.6325 59.1161 35.3143 59.0281 34.9563 59.0281C34.6864 59.0281 34.435 59.082 34.2021 59.19C33.9691 59.2951 33.7646 59.44 33.5884 59.6246C33.4151 59.8093 33.2788 60.021 33.1793 60.2596C33.0799 60.4954 33.0302 60.744 33.0302 61.0053C33.0302 61.3519 33.1112 61.6758 33.2731 61.9769C33.4379 62.2781 33.6623 62.521 33.9464 62.7056C34.2333 62.8903 34.5586 62.9826 34.9222 62.9826ZM39.5128 63.8008V63.0337L42.3935 59.8803C42.7315 59.511 43.0099 59.19 43.2287 58.9173C43.4474 58.6417 43.6094 58.3832 43.7145 58.1417C43.8224 57.8974 43.8764 57.6417 43.8764 57.3746C43.8764 57.0678 43.8026 56.8022 43.6548 56.5778C43.5099 56.3533 43.3111 56.18 43.0582 56.0579C42.8054 55.9357 42.5213 55.8746 42.206 55.8746C41.8707 55.8746 41.5781 55.9442 41.3281 56.0835C41.081 56.2198 40.8892 56.4116 40.7528 56.6587C40.6193 56.9059 40.5526 57.1957 40.5526 57.5281H39.5469C39.5469 57.0167 39.6648 56.5678 39.9006 56.1815C40.1364 55.7951 40.4574 55.494 40.8636 55.2781C41.2727 55.0621 41.7315 54.9542 42.2401 54.9542C42.7514 54.9542 43.2045 55.0621 43.5994 55.2781C43.9943 55.494 44.304 55.7852 44.5284 56.1516C44.7528 56.5181 44.8651 56.9258 44.8651 57.3746C44.8651 57.6957 44.8068 58.0096 44.6903 58.3164C44.5767 58.6204 44.3778 58.9599 44.0938 59.3349C43.8125 59.707 43.4219 60.1616 42.9219 60.6985L40.9616 62.7951V62.8633H45.0185V63.8008H39.5128ZM49.5057 63.9201C49.0057 63.9201 48.5554 63.8207 48.1548 63.6218C47.7543 63.4229 47.4332 63.1502 47.1918 62.8036C46.9503 62.457 46.8182 62.0621 46.7955 61.619H47.8182C47.858 62.0138 48.0369 62.3406 48.3551 62.5991C48.6761 62.8548 49.0597 62.9826 49.5057 62.9826C49.8636 62.9826 50.1818 62.8988 50.4602 62.7312C50.7415 62.5636 50.9616 62.3335 51.1207 62.0408C51.2827 61.7454 51.3636 61.4116 51.3636 61.0394C51.3636 60.6587 51.2798 60.3192 51.1122 60.021C50.9474 59.7198 50.7202 59.4826 50.4304 59.3093C50.1406 59.136 49.8097 59.0479 49.4375 59.0451C49.1705 59.0423 48.8963 59.0835 48.6151 59.1687C48.3338 59.2511 48.1023 59.3576 47.9205 59.4883L46.9318 59.369L47.4602 55.0735H51.9943V56.011H48.3466L48.0398 58.5849H48.0909C48.2699 58.4428 48.4943 58.3249 48.7642 58.2312C49.0341 58.1374 49.3153 58.0906 49.608 58.0906C50.142 58.0906 50.6179 58.2184 51.0355 58.4741C51.456 58.7269 51.7855 59.0735 52.0241 59.5138C52.2656 59.9542 52.3864 60.457 52.3864 61.0224C52.3864 61.5792 52.2614 62.0763 52.0114 62.5138C51.7642 62.9485 51.4233 63.2923 50.9886 63.5451C50.554 63.7951 50.0597 63.9201 49.5057 63.9201ZM57.4712 63.8008V57.2553H58.4428V58.244H58.511C58.6303 57.9201 58.8462 57.6573 59.1587 57.4556C59.4712 57.2539 59.8235 57.1531 60.2156 57.1531C60.2894 57.1531 60.3817 57.1545 60.4925 57.1573C60.6033 57.1602 60.6871 57.1644 60.744 57.1701V58.1928C60.7099 58.1843 60.6317 58.1715 60.5096 58.1545C60.3903 58.1346 60.2638 58.1246 60.1303 58.1246C59.8121 58.1246 59.5281 58.1914 59.2781 58.3249C59.0309 58.4556 58.8349 58.6374 58.69 58.8704C58.5479 59.1005 58.4769 59.3633 58.4769 59.6587V63.8008H57.4712ZM64.4812 63.9371C63.8505 63.9371 63.3065 63.7979 62.8491 63.5195C62.3945 63.2383 62.0437 62.8462 61.7965 62.3434C61.5522 61.8377 61.43 61.2496 61.43 60.5792C61.43 59.9087 61.5522 59.3178 61.7965 58.8065C62.0437 58.2923 62.3874 57.8917 62.8278 57.6048C63.271 57.315 63.788 57.1701 64.3789 57.1701C64.7198 57.1701 65.0565 57.2269 65.3888 57.3406C65.7212 57.4542 66.0238 57.6388 66.2965 57.8945C66.5692 58.1474 66.7866 58.4826 66.9485 58.9002C67.1104 59.3178 67.1914 59.832 67.1914 60.4428V60.869H62.146V59.9996H66.1687C66.1687 59.6303 66.0948 59.3008 65.9471 59.011C65.8022 58.7212 65.5948 58.4925 65.3249 58.3249C65.0579 58.1573 64.7425 58.0735 64.3789 58.0735C63.9783 58.0735 63.6317 58.1729 63.3391 58.3718C63.0494 58.5678 62.8263 58.8235 62.6701 59.1388C62.5138 59.4542 62.4357 59.7923 62.4357 60.1531V60.7326C62.4357 61.2269 62.521 61.646 62.6914 61.9897C62.8647 62.3306 63.1048 62.5906 63.4116 62.7695C63.7184 62.9457 64.0749 63.0337 64.4812 63.0337C64.7454 63.0337 64.984 62.9968 65.1971 62.9229C65.413 62.8462 65.5991 62.7326 65.7553 62.582C65.9116 62.4286 66.0323 62.2383 66.1175 62.011L67.0891 62.2837C66.9869 62.6133 66.815 62.9031 66.5735 63.1531C66.332 63.4002 66.0337 63.5934 65.6786 63.7326C65.3235 63.869 64.9244 63.9371 64.4812 63.9371ZM71.3803 63.9371C70.7667 63.9371 70.2383 63.7923 69.7951 63.5025C69.3519 63.2127 69.011 62.8136 68.7724 62.305C68.5337 61.7965 68.4144 61.2156 68.4144 60.5621C68.4144 59.8974 68.5366 59.3107 68.7809 58.8022C69.0281 58.2908 69.3718 57.8917 69.8121 57.6048C70.2553 57.315 70.7724 57.1701 71.3633 57.1701C71.8235 57.1701 72.2383 57.2553 72.6076 57.4258C72.9769 57.5962 73.2795 57.8349 73.5153 58.1417C73.7511 58.4485 73.8974 58.8065 73.9542 59.2156H72.9485C72.8718 58.9173 72.7013 58.6531 72.4371 58.4229C72.1758 58.19 71.8235 58.0735 71.3803 58.0735C70.9883 58.0735 70.6445 58.1758 70.3491 58.3803C70.0565 58.582 69.8278 58.8675 69.663 59.2369C69.5011 59.6033 69.4201 60.0337 69.4201 60.5281C69.4201 61.0337 69.4996 61.4741 69.6587 61.8491C69.8207 62.2241 70.0479 62.5153 70.3406 62.7227C70.636 62.93 70.9826 63.0337 71.3803 63.0337C71.6417 63.0337 71.8789 62.9883 72.092 62.8974C72.305 62.8065 72.4854 62.6758 72.6332 62.5053C72.7809 62.3349 72.886 62.1303 72.9485 61.8917H73.9542C73.8974 62.2781 73.7567 62.6261 73.5323 62.9357C73.3107 63.2425 73.0167 63.4869 72.6502 63.6687C72.2866 63.8477 71.8633 63.9371 71.3803 63.9371ZM78.0835 63.9371C77.4925 63.9371 76.9741 63.7965 76.5281 63.5153C76.0849 63.234 75.7383 62.8406 75.4883 62.3349C75.2411 61.8292 75.1175 61.2383 75.1175 60.5621C75.1175 59.8803 75.2411 59.2852 75.4883 58.7766C75.7383 58.2681 76.0849 57.8732 76.5281 57.592C76.9741 57.3107 77.4925 57.1701 78.0835 57.1701C78.6744 57.1701 79.1914 57.3107 79.6346 57.592C80.0806 57.8732 80.4272 58.2681 80.6744 58.7766C80.9244 59.2852 81.0494 59.8803 81.0494 60.5621C81.0494 61.2383 80.9244 61.8292 80.6744 62.3349C80.4272 62.8406 80.0806 63.234 79.6346 63.5153C79.1914 63.7965 78.6744 63.9371 78.0835 63.9371ZM78.0835 63.0337C78.5323 63.0337 78.9016 62.9187 79.1914 62.6886C79.4812 62.4585 79.6957 62.1559 79.8349 61.7809C79.9741 61.4059 80.0437 60.9996 80.0437 60.5621C80.0437 60.1246 79.9741 59.717 79.8349 59.3391C79.6957 58.9613 79.4812 58.6559 79.1914 58.4229C78.9016 58.19 78.5323 58.0735 78.0835 58.0735C77.6346 58.0735 77.2653 58.19 76.9755 58.4229C76.6857 58.6559 76.4712 58.9613 76.332 59.3391C76.1928 59.717 76.1232 60.1246 76.1232 60.5621C76.1232 60.9996 76.1928 61.4059 76.332 61.7809C76.4712 62.1559 76.6857 62.4585 76.9755 62.6886C77.2653 62.9187 77.6346 63.0337 78.0835 63.0337ZM82.5845 63.8008V57.2553H83.5561V58.244H83.6243C83.7436 57.9201 83.9595 57.6573 84.272 57.4556C84.5845 57.2539 84.9368 57.1531 85.3288 57.1531C85.4027 57.1531 85.495 57.1545 85.6058 57.1573C85.7166 57.1602 85.8004 57.1644 85.8572 57.1701V58.1928C85.8232 58.1843 85.745 58.1715 85.6229 58.1545C85.5036 58.1346 85.3771 58.1246 85.2436 58.1246C84.9254 58.1246 84.6413 58.1914 84.3913 58.3249C84.1442 58.4556 83.9482 58.6374 83.8033 58.8704C83.6612 59.1005 83.5902 59.3633 83.5902 59.6587V63.8008H82.5845ZM89.3217 63.9371C88.7763 63.9371 88.2947 63.7994 87.8771 63.5238C87.4595 63.2454 87.1328 62.8533 86.897 62.3477C86.6612 61.8391 86.5433 61.2383 86.5433 60.5451C86.5433 59.8576 86.6612 59.261 86.897 58.7553C87.1328 58.2496 87.4609 57.859 87.8814 57.5835C88.3018 57.3079 88.7876 57.1701 89.3388 57.1701C89.7649 57.1701 90.1016 57.2411 90.3487 57.3832C90.5987 57.5224 90.7891 57.6815 90.9197 57.8604C91.0533 58.0366 91.157 58.1815 91.2308 58.2951H91.3161V55.0735H92.3217V63.8008H91.3501V62.7951H91.2308C91.157 62.9144 91.0518 63.065 90.9155 63.2468C90.7791 63.4258 90.5845 63.5863 90.3317 63.7283C90.0788 63.8675 89.7422 63.9371 89.3217 63.9371ZM89.4581 63.0337C89.8615 63.0337 90.2024 62.9286 90.4808 62.7184C90.7592 62.5053 90.9709 62.2113 91.1158 61.8363C91.2607 61.4585 91.3331 61.0224 91.3331 60.5281C91.3331 60.0394 91.2621 59.6119 91.12 59.2454C90.978 58.8761 90.7678 58.5891 90.4893 58.3846C90.2109 58.1772 89.8672 58.0735 89.4581 58.0735C89.032 58.0735 88.6768 58.1829 88.3928 58.4016C88.1115 58.6175 87.8999 58.9116 87.7578 59.2837C87.6186 59.6531 87.549 60.0678 87.549 60.5281C87.549 60.994 87.62 61.4173 87.7621 61.7979C87.907 62.1758 88.12 62.4769 88.4013 62.7013C88.6854 62.9229 89.0376 63.0337 89.4581 63.0337ZM98.9396 58.7212L98.0362 58.9769C97.9794 58.8263 97.8956 58.68 97.7848 58.538C97.6768 58.3931 97.5291 58.2738 97.3416 58.18C97.1541 58.0863 96.9141 58.0394 96.6214 58.0394C96.2209 58.0394 95.8871 58.1317 95.62 58.3164C95.3558 58.4982 95.2237 58.7298 95.2237 59.011C95.2237 59.261 95.3146 59.4585 95.4964 59.6033C95.6783 59.7482 95.9624 59.869 96.3487 59.9656L97.3203 60.2042C97.9055 60.3462 98.3416 60.5636 98.6286 60.8562C98.9155 61.146 99.0589 61.5195 99.0589 61.9769C99.0589 62.3519 98.951 62.6871 98.7351 62.9826C98.522 63.2781 98.2237 63.511 97.8402 63.6815C97.4567 63.8519 97.0107 63.9371 96.5021 63.9371C95.8345 63.9371 95.282 63.7923 94.8445 63.5025C94.407 63.2127 94.13 62.7894 94.0135 62.2326L94.968 61.994C95.0589 62.3462 95.2308 62.6104 95.4837 62.7866C95.7393 62.9627 96.0732 63.0508 96.4851 63.0508C96.9538 63.0508 97.326 62.9513 97.6016 62.7525C97.88 62.5508 98.0192 62.3093 98.0192 62.0281C98.0192 61.8008 97.9396 61.6104 97.7805 61.457C97.6214 61.3008 97.3771 61.1843 97.0476 61.1076L95.9567 60.8519C95.3572 60.7099 94.9169 60.4897 94.6357 60.1914C94.3572 59.8903 94.218 59.5138 94.218 59.0621C94.218 58.6928 94.3217 58.3661 94.5291 58.082C94.7393 57.7979 95.0249 57.5749 95.3857 57.413C95.7493 57.2511 96.1612 57.1701 96.6214 57.1701C97.2692 57.1701 97.7777 57.3121 98.147 57.5962C98.5192 57.8803 98.7834 58.2553 98.9396 58.7212Z" fill="#4B5864"/>
<path d="M71.304 16.0735H72.8722V22.2099C72.8693 22.7724 72.75 23.2567 72.5142 23.663C72.2784 24.0664 71.9489 24.3775 71.5256 24.5962C71.1051 24.8121 70.6151 24.9201 70.0554 24.9201C69.544 24.9201 69.0838 24.8292 68.6747 24.6474C68.2685 24.4627 67.946 24.19 67.7074 23.8292C67.4688 23.4684 67.3494 23.0195 67.3494 22.4826H68.9219C68.9247 22.7184 68.9759 22.9215 69.0753 23.092C69.1776 23.2624 69.3182 23.3931 69.4972 23.484C69.6761 23.5749 69.8821 23.6204 70.1151 23.6204C70.3679 23.6204 70.5824 23.5678 70.7585 23.4627C70.9347 23.3548 71.0682 23.1957 71.1591 22.9854C71.2528 22.7752 71.3011 22.5167 71.304 22.2099V16.0735ZM77.3743 24.9286C76.7351 24.9286 76.1811 24.788 75.7124 24.5067C75.2436 24.2255 74.88 23.832 74.6214 23.3263C74.3658 22.8207 74.2379 22.2298 74.2379 21.5536C74.2379 20.8775 74.3658 20.2852 74.6214 19.7766C74.88 19.2681 75.2436 18.8732 75.7124 18.592C76.1811 18.3107 76.7351 18.1701 77.3743 18.1701C78.0135 18.1701 78.5675 18.3107 79.0362 18.592C79.505 18.8732 79.8672 19.2681 80.1229 19.7766C80.3814 20.2852 80.5107 20.8775 80.5107 21.5536C80.5107 22.2298 80.3814 22.8207 80.1229 23.3263C79.8672 23.832 79.505 24.2255 79.0362 24.5067C78.5675 24.788 78.0135 24.9286 77.3743 24.9286ZM77.3828 23.6928C77.7294 23.6928 78.0192 23.5977 78.2521 23.4073C78.4851 23.2141 78.6584 22.9556 78.772 22.6317C78.8885 22.3079 78.9467 21.9471 78.9467 21.5494C78.9467 21.1488 78.8885 20.7866 78.772 20.4627C78.6584 20.136 78.4851 19.8761 78.2521 19.6829C78.0192 19.4897 77.7294 19.3931 77.3828 19.3931C77.0277 19.3931 76.7322 19.4897 76.4964 19.6829C76.2635 19.8761 76.0888 20.136 75.9723 20.4627C75.8587 20.7866 75.8018 21.1488 75.8018 21.5494C75.8018 21.9471 75.8587 22.3079 75.9723 22.6317C76.0888 22.9556 76.2635 23.2141 76.4964 23.4073C76.7322 23.5977 77.0277 23.6928 77.3828 23.6928ZM81.82 24.8008V18.2553H83.3626V24.8008H81.82ZM82.5955 17.3263C82.3512 17.3263 82.141 17.2454 81.9648 17.0835C81.7887 16.9187 81.7006 16.7212 81.7006 16.4911C81.7006 16.2582 81.7887 16.0607 81.9648 15.8988C82.141 15.734 82.3512 15.6516 82.5955 15.6516C82.8427 15.6516 83.0529 15.734 83.2262 15.8988C83.4023 16.0607 83.4904 16.2582 83.4904 16.4911C83.4904 16.7212 83.4023 16.9187 83.2262 17.0835C83.0529 17.2454 82.8427 17.3263 82.5955 17.3263ZM86.4915 20.9656V24.8008H84.9489V18.2553H86.4233V19.3675H86.5C86.6506 19.0011 86.8906 18.7099 87.2202 18.494C87.5526 18.2781 87.9631 18.1701 88.4517 18.1701C88.9034 18.1701 89.2969 18.2667 89.6321 18.4599C89.9702 18.6531 90.2315 18.9329 90.4162 19.2994C90.6037 19.6658 90.696 20.1104 90.6932 20.6332V24.8008H89.1506V20.8718C89.1506 20.4343 89.0369 20.092 88.8097 19.8448C88.5852 19.5977 88.2741 19.4741 87.8764 19.4741C87.6065 19.4741 87.3665 19.5337 87.1562 19.6531C86.9489 19.7695 86.7855 19.9386 86.6662 20.1602C86.5497 20.3817 86.4915 20.6502 86.4915 20.9656Z" fill="#4B5864"/>
<path d="M194 0.800781H206C208.209 0.800781 210 2.59164 210 4.80078V72.8008C210 75.0099 208.209 76.8008 206 76.8008H194V0.800781Z" fill="#EE9C5F"/>
<circle cx="8.5" cy="24.3008" r="8.5" fill="#EE9C5F"/>
<path d="M6.17383 28.3008V20.3008H7.62305V27.0859H11.1465V28.3008H6.17383Z" fill="white"/>
<circle cx="8.5" cy="52.3008" r="8.5" fill="#EE9C5F"/>
<path d="M5.71191 56.3008V48.3008H8.71191C9.3265 48.3008 9.84212 48.4076 10.2588 48.6211C10.6781 48.8346 10.9945 49.1341 11.208 49.5195C11.4242 49.9023 11.5322 50.349 11.5322 50.8594C11.5322 51.3724 11.4229 51.8177 11.2041 52.1953C10.988 52.5703 10.6689 52.8607 10.2471 53.0664C9.8252 53.2695 9.30697 53.3711 8.69238 53.3711H6.55566V52.168H8.49707C8.85645 52.168 9.15072 52.1185 9.37988 52.0195C9.60905 51.918 9.77832 51.7708 9.8877 51.5781C9.99967 51.3828 10.0557 51.1432 10.0557 50.8594C10.0557 50.5755 9.99967 50.3333 9.8877 50.1328C9.77572 49.9297 9.60514 49.776 9.37598 49.6719C9.14681 49.5651 8.85124 49.5117 8.48926 49.5117H7.16113V56.3008H5.71191ZM9.84473 52.6758L11.8252 56.3008H10.208L8.2627 52.6758H9.84473Z" fill="white"/>
<rect x="23" y="10.8008" width="36" height="33" rx="3" fill="#FFE7D0"/>
<circle cx="44.5" cy="27.3008" r="6.6" stroke="#B97545" stroke-width="1.8"/>
<circle cx="37.5" cy="27.3008" r="6.6" stroke="#E99A61" stroke-width="1.8"/>
</svg>
